<svg aria-hidden="true" style="position: absolute; width: 0; height: 0; overflow: hidden;" version="1.1" xmlns="http://www.w3.org/2000/svg" xmlns:xlink="http://www.w3.org/1999/xlink">
<defs>
<symbol id="Group" viewBox="0 0 38 32">
<path fill="#fff" style="fill: var(--color1, #fff)" d="M18.774 0.163c0.177-0.106 0.381-0.163 0.587-0.163s0.41 0.056 0.587 0.163l15.479 9.287c0.677 0.406 1.238 0.981 1.627 1.669s0.593 1.464 0.593 2.254v12.914c0 1.516-0.602 2.969-1.674 4.041s-2.525 1.674-4.041 1.674h-25.143c-1.516 0-2.969-0.602-4.041-1.674s-1.674-2.525-1.674-4.041v-12.914c-0-0.79 0.204-1.566 0.593-2.254s0.949-1.262 1.627-1.669v0l15.479-9.287zM19.361 2.476l-14.921 8.953 14.921 8.953 14.921-8.953-0.030-0.018-14.891-8.935zM35.361 13.447l-15.413 9.248c-0.177 0.106-0.381 0.162-0.587 0.162s-0.41-0.056-0.587-0.162l-15.413-9.248v12.839c0 0.909 0.361 1.781 1.004 2.424s1.515 1.004 2.424 1.004h25.143c0.909 0 1.781-0.361 2.424-1.004s1.004-1.515 1.004-2.424v-12.839z"></path>
</symbol>
<symbol id="Vector-2" viewBox="0 0 32 32">
<path fill="#ea4c89" style="fill: var(--color2, #ea4c89)" d="M16 4.8c-4.418 0-8 3.582-8 8s3.582 8 8 8c4.418 0 8-3.582 8-8s-3.582-8-8-8zM16 5.959c1.743 0 3.334 0.652 4.542 1.725-0.888 1.171-2.236 1.95-3.587 2.478-0.765-1.393-1.622-2.733-2.566-4.012 0.528-0.127 1.069-0.191 1.612-0.191h-0zM13.090 6.607c0.892 1.334 1.756 2.572 2.545 3.972-1.996 0.517-4.252 0.828-6.335 0.833 0.439-2.131 1.871-3.901 3.79-4.804v-0zM21.3 8.475c0.988 1.208 1.532 2.719 1.54 4.28-1.582-0.312-3.156-0.394-4.758-0.232-0.18-0.449-0.398-0.876-0.608-1.336 1.381-0.557 2.858-1.511 3.826-2.712v0zM16.19 11.638c0.171 0.364 0.37 0.75 0.556 1.145-2.228 0.982-4.598 2.295-5.828 4.597-1.181-1.307-1.81-3.020-1.756-4.78 2.386-0.011 4.728-0.31 7.028-0.962zM19.806 13.503c0.996 0 1.987 0.128 2.95 0.38-0.148 0.926-0.486 1.813-0.992 2.603s-1.168 1.468-1.947 1.992c-0.367-1.67-0.717-3.268-1.336-4.879 0.439-0.064 0.881-0.096 1.324-0.096l0 0zM22.791 13.627c-0.005 0.039-0.009 0.078-0.015 0.116 0.006-0.039 0.010-0.077 0.015-0.116zM17.215 13.911c0.63 1.629 1.125 3.433 1.457 5.189-0.845 0.359-1.754 0.543-2.672 0.542-1.521 0.002-2.999-0.505-4.198-1.44 1.239-2.010 3.158-3.53 5.412-4.29l0-0z"></path>
</symbol>
<symbol id="Vector-1" viewBox="0 0 32 32">
<path d="M15.8 4.8c-4.307 0-7.8 3.492-7.8 7.8 0 3.446 2.234 6.37 5.334 7.401 0.39 0.072 0.532-0.168 0.532-0.375 0-0.185-0.007-0.675-0.010-1.327-2.17 0.472-2.628-1.046-2.628-1.046-0.355-0.901-0.866-1.141-0.866-1.141-0.708-0.484 0.054-0.474 0.054-0.474 0.783 0.055 1.195 0.804 1.195 0.804 0.696 1.192 1.826 0.847 2.27 0.649 0.071-0.505 0.273-0.848 0.495-1.043-1.732-0.197-3.553-0.866-3.553-3.855 0-0.852 0.304-1.548 0.803-2.094-0.080-0.196-0.348-0.989 0.077-2.064 0 0 0.655-0.21 2.145 0.8 0.622-0.174 1.289-0.261 1.953-0.263 0.662 0.003 1.33 0.089 1.953 0.263 1.489-1.010 2.143-0.8 2.143-0.8 0.426 1.074 0.158 1.867 0.078 2.064 0.5 0.545 0.802 1.242 0.802 2.094 0 2.996-1.823 3.656-3.561 3.848 0.28 0.241 0.529 0.718 0.529 1.446 0 1.042-0.009 1.883-0.009 2.139 0 0.209 0.14 0.452 0.536 0.375 3.096-1.033 5.329-3.954 5.329-7.4 0-4.308-3.492-7.8-7.8-7.8z"></path>
</symbol>
<symbol id="Vector" viewBox="0 0 35 32">
<path fill="#1da1f2" style="fill: var(--color3, #1da1f2)" d="M27.077 6.768c-0.707 0.319-1.456 0.528-2.224 0.62 0.806-0.494 1.41-1.266 1.701-2.176-0.76 0.458-1.592 0.78-2.459 0.954-0.583-0.632-1.356-1.050-2.197-1.191s-1.704 0.005-2.456 0.414-1.349 1.059-1.701 1.848c-0.352 0.79-0.437 1.675-0.244 2.519-1.54-0.079-3.046-0.486-4.42-1.195s-2.588-1.704-3.56-2.92c-0.344 0.601-0.525 1.284-0.524 1.98-0.001 0.648 0.156 1.286 0.457 1.858s0.735 1.059 1.266 1.418c-0.615-0.019-1.216-0.188-1.754-0.492v0.049c-0 0.909 0.309 1.791 0.875 2.494s1.355 1.186 2.231 1.366c-0.324 0.091-0.665 0.134-1.020 0.134-0.25 0-0.492-0.021-0.728-0.069 0.247 0.782 0.729 1.466 1.378 1.956s1.431 0.762 2.239 0.778c-1.625 1.29-3.685 1.875-5.732 1.628 1.769 1.159 3.83 1.775 5.935 1.772 7.122 0 11.015-6 11.015-11.201 0-0.171-0.002-0.34-0.009-0.509 0.758-0.554 1.412-1.243 1.93-2.033z"></path>
</symbol>
</defs>
</svg>
